Open Season           (2006)     mkv 3d
 
http://www.imdb.com/title/tt0400717/


PLOT:
Boog, a domesticated 900lb. Grizzly bear finds himself stranded in the woods 3 days before Open Season. Forced to rely on Elliot, a fast-talking mule deer, the two form an unlikely friendship and must quickly rally other forest animals if they are to form a rag-tag army against the hunters.

Format                           : Matroska
Format version                   : Version 2
File size                        : 6.85 GiB
Duration                         : 1h 26mn
Overall bit rate                 : 11.4 Mbps
Movie name                       : OPEN_SEASON
Writing library                  : libebml v0.7.8 + libmatroska v0.8.1

Video
ID                               : 1
Format                           : AVC
Format/Info                      : Advanced Video Codec
Format profile                   : High@L5.1
Format settings, CABAC           : Yes
Format settings, ReFrames        : 2 frames
Codec ID                         : V_MPEG4/ISO/AVC
Duration                         : 1h 26mn
Bit rate                         : 10.5 Mbps
Width                            : 1 920 pixels
Height                           : 1 080 pixels
Display aspect ratio             : 16:9
Frame rate                       : 23.976 fps
Color space                      : YUV
Chroma subsampling               : 4:2:0
Bit depth                        : 8 bits
Scan type                        : Progressive
Bits/(Pixel*Frame)               : 0.211
Stream size                      : 6.33 GiB (92%)
Writing library                  : x264 core
Color primaries                  : BT.709-5, BT.1361, IEC 61966-2-4, SMPTE RP177
Transfer characteristics         : BT.709-5, BT.1361
Matrix coefficients              : BT.709-5, BT.1361, IEC 61966-2-4 709, SMPTE RP177

Audio
ID                               : 2
Format                           : AC-3
Format/Info                      : Audio Coding 3
Mode extension                   : CM (complete main)
Codec ID                         : A_AC3
Duration                         : 1h 26mn
Bit rate mode                    : Constant
Bit rate                         : 640 Kbps
Channel(s)                       : 6 channels
Channel positions                : Front: L C R, Side: L R, LFE
Sampling rate                    : 48.0 KHz
Bit depth                        : 16 bits
Compression mode                 : Lossy
Stream size                      : 395 MiB (6%)

                     

                   !!YOU NEED 3D EQUIPMENT TO WATCH THIS!!

                                     (LiG)		